<svg xmlns="http://www.w3.org/2000/svg" viewBox="0 0 100 120">
  <!-- Bouclier vert avec bandes jaune et rouge -->
  <path d="M10,15 L90,15 L90,85 Q50,110 10,85 Z" fill="#008751"/>
  <rect x="10" y="15" width="80" height="12" fill="#FCD116"/>
  <path d="M10,15 L90,15 L90,85 Q50,110 10,85 Z" fill="none" stroke="#5a3e00" stroke-width="2.5"/>
  <!-- Étoile -->
  <polygon points="50,22 52.9,31 62,31 54.6,36.5 57.4,45.5 50,40 42.6,45.5 45.4,36.5 38,31 47.1,31" fill="#E8112D"/>
  <!-- Félin stylisé -->
  <ellipse cx="50" cy="65" rx="16" ry="10" fill="#C68642"/>
  <circle cx="50" cy="54" r="9" fill="#C68642"/>
  <ellipse cx="43" cy="75" rx="3.5" ry="7" fill="#C68642"/>
  <ellipse cx="57" cy="75" rx="3.5" ry="7" fill="#C68642"/>
  <circle cx="47" cy="51" r="1.5" fill="#333"/>
  <path d="M44,56 Q40,52 37,56" fill="none" stroke="#8B4513" stroke-width="1"/>
  <!-- Devise -->
  <rect x="5" y="108" width="90" height="10" rx="3" fill="#008751"/>
  <text x="50" y="116" font-family="Arial" font-size="7" font-weight="bold" fill="white" text-anchor="middle">BÉNIN</text>
</svg>
