<svg xmlns="http://www.w3.org/2000/svg" viewBox="0 0 100 120">
  <!-- Bouclier rouge et vert -->
  <path d="M10,15 L90,15 L90,50 L10,50 Z" fill="#EF2B2D"/>
  <path d="M10,50 L90,50 L90,85 Q50,110 10,85 Z" fill="#009A00"/>
  <path d="M10,15 L90,15 L90,85 Q50,110 10,85 Z" fill="none" stroke="#5a3e00" stroke-width="2.5"/>
  <!-- Étoile jaune -->
  <polygon points="50,28 52.4,35.4 60,35.4 54,40 56.4,47.4 50,43 43.6,47.4 46,40 40,35.4 47.6,35.4" fill="#FCD116"/>
  <!-- Cheval stylisé -->
  <ellipse cx="50" cy="72" rx="14" ry="9" fill="#8B4513"/>
  <rect x="44" y="63" width="6" height="14" rx="2" fill="#8B4513"/>
  <circle cx="47" cy="59" r="8" fill="#8B4513"/>
  <!-- Crinière -->
  <path d="M44,55 Q38,50 40,60" fill="#5a3e00"/>
  <!-- Jambes -->
  <rect x="40" y="80" width="4" height="8" rx="2" fill="#8B4513"/>
  <rect x="56" y="80" width="4" height="8" rx="2" fill="#8B4513"/>
  <!-- Queue -->
  <path d="M64,72 Q72,65 70,78" fill="none" stroke="#8B4513" stroke-width="3"/>
  <!-- Devise -->
  <rect x="5" y="108" width="90" height="10" rx="3" fill="#EF2B2D"/>
  <text x="50" y="116" font-family="Arial" font-size="5.5" font-weight="bold" fill="white" text-anchor="middle">BURKINA FASO</text>
</svg>
