<svg xmlns="http://www.w3.org/2000/svg" viewBox="0 0 100 120">
  <defs>
    <linearGradient id="bg" x1="0%" y1="0%" x2="100%" y2="100%">
      <stop offset="0%" style="stop-color:#F77F00;stop-opacity:1"/>
      <stop offset="50%" style="stop-color:#FFFFFF;stop-opacity:1"/>
      <stop offset="100%" style="stop-color:#009A44;stop-opacity:1"/>
    </linearGradient>
  </defs>
  <!-- Bouclier tricolore -->
  <path d="M10,15 L90,15 L90,85 Q50,110 10,85 Z" fill="#F77F00"/>
  <path d="M43,15 L57,15 L57,95 Q52,99 48,99 Q45,98 43,95 Z" fill="#FFFFFF"/>
  <path d="M57,15 L90,15 L90,85 Q73,98 57,95 Z" fill="#009A44"/>
  <!-- Contour -->
  <path d="M10,15 L90,15 L90,85 Q50,110 10,85 Z" fill="none" stroke="#8B6914" stroke-width="2.5"/>
  <!-- Éléphant stylisé -->
  <ellipse cx="50" cy="55" rx="18" ry="14" fill="#808080" opacity="0.85"/>
  <circle cx="50" cy="44" r="10" fill="#808080" opacity="0.85"/>
  <ellipse cx="43" cy="70" rx="4" ry="8" fill="#808080" opacity="0.85"/>
  <ellipse cx="57" cy="70" rx="4" ry="8" fill="#808080" opacity="0.85"/>
  <path d="M40,44 Q30,38 28,52 Q30,56 38,54" fill="#808080" opacity="0.85"/>
  <circle cx="46" cy="41" r="1.5" fill="#333"/>
  <!-- Devise -->
  <rect x="5" y="108" width="90" height="10" rx="3" fill="#F77F00"/>
  <text x="50" y="116" font-family="Arial" font-size="6" font-weight="bold" fill="white" text-anchor="middle">CÔTE D'IVOIRE</text>
</svg>
